<mxfile host="app.diagrams.net" modified="2024-06-13T05:22:33.998Z" agent="Mozilla/5.0 (Windows NT 10.0; Win64; x64) AppleWebKit/537.36 (KHTML, like Gecko) Chrome/125.0.0.0 Safari/537.36 Edg/125.0.0.0" etag="HmRZHu_EfxGHsPujBT5I" version="24.5.2" type="github">
  <diagram name="第 1 页" id="EplFVpuCv8NmE4MC7ROF">
    <mxGraphModel dx="2266" dy="1145" grid="1" gridSize="10" guides="1" tooltips="1" connect="1" arrows="1" fold="1" page="1" pageScale="1" pageWidth="1169" pageHeight="827" math="0" shadow="0">
      <root>
        <mxCell id="0" />
        <mxCell id="1" parent="0" />
        <mxCell id="gKL3NAAci7bkJujyeRxO-1" value="MagicByte" style="rounded=0;whiteSpace=wrap;html=1;" parent="1" vertex="1">
          <mxGeometry x="160" y="340" width="160" height="60" as="geometry" />
        </mxCell>
        <mxCell id="gKL3NAAci7bkJujyeRxO-2" value="Version" style="rounded=0;whiteSpace=wrap;html=1;" parent="1" vertex="1">
          <mxGeometry x="320" y="340" width="40" height="60" as="geometry" />
        </mxCell>
        <mxCell id="gKL3NAAci7bkJujyeRxO-3" value="StakerPublicKey" style="rounded=0;whiteSpace=wrap;html=1;" parent="1" vertex="1">
          <mxGeometry x="360" y="340" width="320" height="60" as="geometry" />
        </mxCell>
        <mxCell id="gKL3NAAci7bkJujyeRxO-4" value="FinalityProviderPublicKey" style="rounded=0;whiteSpace=wrap;html=1;" parent="1" vertex="1">
          <mxGeometry x="680" y="340" width="320" height="60" as="geometry" />
        </mxCell>
        <mxCell id="gKL3NAAci7bkJujyeRxO-5" value="StakingTime" style="rounded=0;whiteSpace=wrap;html=1;" parent="1" vertex="1">
          <mxGeometry x="1000" y="340" width="80" height="60" as="geometry" />
        </mxCell>
        <mxCell id="gKL3NAAci7bkJujyeRxO-6" value="&lt;font style=&quot;font-size: 14px;&quot;&gt;32 Bytes&lt;/font&gt;" style="text;html=1;align=center;verticalAlign=middle;resizable=0;points=[];autosize=1;strokeColor=none;fillColor=none;" parent="1" vertex="1">
          <mxGeometry x="480" y="408" width="80" height="30" as="geometry" />
        </mxCell>
        <mxCell id="gKL3NAAci7bkJujyeRxO-7" value="&lt;font style=&quot;font-size: 14px;&quot;&gt;32 Bytes&lt;/font&gt;" style="text;html=1;align=center;verticalAlign=middle;resizable=0;points=[];autosize=1;strokeColor=none;fillColor=none;" parent="1" vertex="1">
          <mxGeometry x="800" y="408" width="80" height="30" as="geometry" />
        </mxCell>
        <mxCell id="gKL3NAAci7bkJujyeRxO-8" value="&lt;font style=&quot;font-size: 14px;&quot;&gt;4 bytes&lt;/font&gt;" style="text;html=1;align=center;verticalAlign=middle;resizable=0;points=[];autosize=1;strokeColor=none;fillColor=none;" parent="1" vertex="1">
          <mxGeometry x="205" y="408" width="70" height="30" as="geometry" />
        </mxCell>
        <mxCell id="gKL3NAAci7bkJujyeRxO-9" value="&lt;font style=&quot;font-size: 14px;&quot;&gt;1 Byte&lt;/font&gt;" style="text;html=1;align=center;verticalAlign=middle;resizable=0;points=[];autosize=1;strokeColor=none;fillColor=none;" parent="1" vertex="1">
          <mxGeometry x="310" y="408" width="60" height="30" as="geometry" />
        </mxCell>
        <mxCell id="gKL3NAAci7bkJujyeRxO-10" value="&lt;font style=&quot;font-size: 14px;&quot;&gt;2 Bytes&lt;/font&gt;" style="text;html=1;align=center;verticalAlign=middle;resizable=0;points=[];autosize=1;strokeColor=none;fillColor=none;" parent="1" vertex="1">
          <mxGeometry x="1001" y="408" width="70" height="30" as="geometry" />
        </mxCell>
      </root>
    </mxGraphModel>
  </diagram>
</mxfile>
